<?xml version="1.0" encoding="UTF-8" standalone="no"?>
<!-- Created with Inkscape (http://www.inkscape.org/) -->

<svg
   width="10mm"
   height="10mm"
   viewBox="0 0 10 10"
   version="1.1"
   id="svg5"
   inkscape:version="1.1.1 (3bf5ae0d25, 2021-09-20, custom)"
   sodipodi:docname="glyph_x.svg"
   xmlns:inkscape="http://www.inkscape.org/namespaces/inkscape"
   xmlns:sodipodi="http://sodipodi.sourceforge.net/DTD/sodipodi-0.dtd"
   xmlns="http://www.w3.org/2000/svg"
   xmlns:svg="http://www.w3.org/2000/svg">
  <sodipodi:namedview
     id="namedview7"
     pagecolor="#505050"
     bordercolor="#eeeeee"
     borderopacity="1"
     inkscape:pageshadow="0"
     inkscape:pageopacity="0"
     inkscape:pagecheckerboard="0"
     inkscape:document-units="mm"
     showgrid="false"
     width="1000000mm"
     inkscape:zoom="7.9952008"
     inkscape:cx="25.327694"
     inkscape:cy="17.197817"
     inkscape:window-width="1366"
     inkscape:window-height="746"
     inkscape:window-x="0"
     inkscape:window-y="0"
     inkscape:window-maximized="1"
     inkscape:current-layer="g1379"
     showguides="false" />
  <defs
     id="defs2" />
  <g
     inkscape:label="Layer 1"
     inkscape:groupmode="layer"
     id="layer1">
    <g
       id="g1365"
       transform="rotate(45.110345,4.9790448,5.7546859)">
      <g
         id="g1394"
         transform="matrix(1.7160477,0.0011646,-0.00116458,1.7160476,-2.9482906,-3.4874164)">
        <g
           id="g1379">
          <g
             id="g1105"
             transform="matrix(0.19741996,0,0,-0.33608313,4.5915395,8.5123168)">
            <path
               id="path1101"
               style="fill:#b3b3b3"
               inkscape:transform-center-y="-1.3704308"
               transform="scale(0.26458333)"
               d="m 25.361232,31.011797 -17.942593,10e-7 -17.942594,-10e-7 8.9712958,-15.538742 8.971298,-15.53874218 8.9712972,15.53874118 z" />
            <path
               id="path1103"
               style="fill:#ffffff"
               inkscape:transform-center-y="-0.99825702"
               transform="matrix(0.19272929,0,0,0.19272929,0.59146979,1.5504334)"
               d="m 25.361232,31.011797 -17.942593,10e-7 -17.942594,-10e-7 8.9712958,-15.538742 8.971298,-15.53874218 8.9712972,15.53874118 z" />
          </g>
          <g
             id="g1339"
             transform="matrix(-0.19741996,0,0,0.33608313,5.3665503,2.9970549)">
            <path
               id="path1335"
               style="fill:#b3b3b3"
               inkscape:transform-center-y="-1.3704308"
               transform="scale(0.26458333)"
               d="m 25.361232,31.011797 -17.942593,10e-7 -17.942594,-10e-7 8.9712958,-15.538742 8.971298,-15.53874218 8.9712972,15.53874118 z" />
            <path
               id="path1337"
               style="fill:#ffffff"
               inkscape:transform-center-y="-0.99825702"
               transform="matrix(0.19272929,0,0,0.19272929,0.59146979,1.5504334)"
               d="m 25.361232,31.011797 -17.942593,10e-7 -17.942594,-10e-7 8.9712958,-15.538742 8.971298,-15.53874218 8.9712972,15.53874118 z" />
          </g>
          <g
             id="g1345"
             transform="matrix(0,-0.19741996,-0.33608313,0,7.7366758,6.1421913)">
            <path
               id="path1341"
               style="fill:#b3b3b3"
               inkscape:transform-center-y="-1.3704308"
               transform="scale(0.26458333)"
               d="m 25.361232,31.011797 -17.942593,10e-7 -17.942594,-10e-7 8.9712958,-15.538742 8.971298,-15.53874218 8.9712972,15.53874118 z" />
            <path
               id="path1343"
               style="fill:#ffffff"
               inkscape:transform-center-y="-0.99825702"
               transform="matrix(0.19272929,0,0,0.19272929,0.59146979,1.5504334)"
               d="m 25.361232,31.011797 -17.942593,10e-7 -17.942594,-10e-7 8.9712958,-15.538742 8.971298,-15.53874218 8.9712972,15.53874118 z" />
          </g>
          <g
             id="g1351"
             transform="matrix(0,-0.19741996,0.33608313,0,2.2214139,6.1421913)">
            <path
               id="path1347"
               style="fill:#b3b3b3"
               inkscape:transform-center-y="-1.3704308"
               transform="scale(0.26458333)"
               d="m 25.361232,31.011797 -17.942593,10e-7 -17.942594,-10e-7 8.9712958,-15.538742 8.971298,-15.53874218 8.9712972,15.53874118 z" />
            <path
               id="path1349"
               style="fill:#ffffff"
               inkscape:transform-center-y="-0.99825702"
               transform="matrix(0.19272929,0,0,0.19272929,0.59146979,1.5504334)"
               d="m 25.361232,31.011797 -17.942593,10e-7 -17.942594,-10e-7 8.9712958,-15.538742 8.971298,-15.53874218 8.9712972,15.53874118 z" />
          </g>
        </g>
      </g>
    </g>
  </g>
</svg>
