<?xml version="1.0" encoding="UTF-8" standalone="no"?>
<!-- Created with Inkscape (http://www.inkscape.org/) -->

<svg
   width="10mm"
   height="10mm"
   viewBox="0 0 10 10"
   version="1.1"
   id="svg5"
   inkscape:version="1.1.1 (3bf5ae0d25, 2021-09-20, custom)"
   sodipodi:docname="glyph_c.svg"
   xmlns:inkscape="http://www.inkscape.org/namespaces/inkscape"
   xmlns:sodipodi="http://sodipodi.sourceforge.net/DTD/sodipodi-0.dtd"
   xmlns="http://www.w3.org/2000/svg"
   xmlns:svg="http://www.w3.org/2000/svg">
  <sodipodi:namedview
     id="namedview7"
     pagecolor="#505050"
     bordercolor="#eeeeee"
     borderopacity="1"
     inkscape:pageshadow="0"
     inkscape:pageopacity="0"
     inkscape:pagecheckerboard="0"
     inkscape:document-units="mm"
     showgrid="false"
     width="1000000mm"
     inkscape:zoom="6.0513223"
     inkscape:cx="2.5614237"
     inkscape:cy="-0.24787971"
     inkscape:window-width="1366"
     inkscape:window-height="746"
     inkscape:window-x="0"
     inkscape:window-y="0"
     inkscape:window-maximized="1"
     inkscape:current-layer="layer1" />
  <defs
     id="defs2" />
  <g
     inkscape:label="Layer 1"
     inkscape:groupmode="layer"
     id="layer1">
    <g
       id="g834"
       transform="matrix(0,0.10920059,0.03676529,0,-3.1520671,-5.2915013)" />
    <g
       id="g1325"
       transform="translate(0.2801364,0.50000002)">
      <g
         id="g1384"
         transform="matrix(0,0.03935998,-0.05604177,0,15.328996,-1.407255)">
        <path
           id="path31"
           style="fill:#999999;fill-rule:evenodd"
           inkscape:transform-center-x="1.1296413e-06"
           inkscape:transform-center-y="-11.895892"
           transform="scale(0.26458333)"
           d="M 494.64132,764.0418 H 338.8924 183.14347 l 77.87446,-134.88252 77.87447,-134.88253 77.87446,134.88252 z" />
        <path
           id="path1236"
           style="fill:#ffffff;fill-rule:evenodd"
           inkscape:transform-center-x="2.1006309e-06"
           inkscape:transform-center-y="-7.9696088"
           transform="matrix(0.17725656,0,0,0.17725656,29.735573,59.027426)"
           d="M 494.64132,764.0418 H 338.8924 183.14347 l 77.87446,-134.88252 77.87447,-134.88253 77.87446,134.88252 z" />
      </g>
      <path
         id="path830"
         style="fill:#999999;fill-rule:evenodd"
         inkscape:transform-center-x="1.1296413e-06"
         inkscape:transform-center-y="-11.895892"
         transform="matrix(0,0.02889266,0.00972748,0,-3.4322036,-4.7915012)"
         d="M 494.64132,764.0418 H 338.8924 183.14347 l 77.87446,-134.88252 77.87447,-134.88253 77.87446,134.88252 z" />
      <path
         id="path832"
         style="fill:#ffffff;fill-rule:evenodd"
         inkscape:transform-center-x="2.1006309e-06"
         inkscape:transform-center-y="-7.9696088"
         transform="matrix(0,0.01935652,0.00651689,0,-1.2620431,-1.5443591)"
         d="M 494.64132,764.0418 H 338.8924 183.14347 l 77.87446,-134.88252 77.87447,-134.88253 77.87446,134.88252 z" />
      <g
         id="g1333"
         transform="matrix(0,0.03935998,-0.05604177,0,15.328997,4.3488082)">
        <path
           id="path1329"
           style="fill:#999999;fill-rule:evenodd"
           inkscape:transform-center-x="1.1296413e-06"
           inkscape:transform-center-y="-11.895892"
           transform="scale(0.26458333)"
           d="M 494.64132,764.0418 H 338.8924 183.14347 l 77.87446,-134.88252 77.87447,-134.88253 77.87446,134.88252 z" />
        <path
           id="path1331"
           style="fill:#ffffff;fill-rule:evenodd"
           inkscape:transform-center-x="2.1006309e-06"
           inkscape:transform-center-y="-7.9696088"
           transform="matrix(0.17725656,0,0,0.17725656,29.735573,59.027426)"
           d="M 494.64132,764.0418 H 338.8924 183.14347 l 77.87446,-134.88252 77.87447,-134.88253 77.87446,134.88252 z" />
      </g>
    </g>
  </g>
</svg>
