<?xml version="1.0" encoding="UTF-8" standalone="no"?>
<!-- Created with Inkscape (http://www.inkscape.org/) -->

<svg
   width="10mm"
   height="10mm"
   viewBox="0 0 10 10"
   version="1.1"
   id="svg5"
   inkscape:version="1.1.1 (3bf5ae0d25, 2021-09-20, custom)"
   sodipodi:docname="glyph_y.svg"
   xmlns:inkscape="http://www.inkscape.org/namespaces/inkscape"
   xmlns:sodipodi="http://sodipodi.sourceforge.net/DTD/sodipodi-0.dtd"
   xmlns="http://www.w3.org/2000/svg"
   xmlns:svg="http://www.w3.org/2000/svg">
  <sodipodi:namedview
     id="namedview7"
     pagecolor="#505050"
     bordercolor="#eeeeee"
     borderopacity="1"
     inkscape:pageshadow="0"
     inkscape:pageopacity="0"
     inkscape:pagecheckerboard="0"
     inkscape:document-units="mm"
     showgrid="false"
     width="1000000mm"
     inkscape:zoom="37.907964"
     inkscape:cx="16.606009"
     inkscape:cy="26.577529"
     inkscape:window-width="1366"
     inkscape:window-height="746"
     inkscape:window-x="0"
     inkscape:window-y="0"
     inkscape:window-maximized="1"
     inkscape:current-layer="g1405" />
  <defs
     id="defs2" />
  <g
     inkscape:label="Layer 1"
     inkscape:groupmode="layer"
     id="layer1">
    <g
       id="g834"
       transform="matrix(-0.02041096,0,0,0.08456815,6.8362403,-7.2676035)">
      <g
         id="g1405"
         transform="matrix(0.75682073,0,0,0.75681734,26.415646,51.192973)">
        <g
           id="g826">
          <path
             id="path830"
             style="fill:#999999;fill-rule:evenodd"
             inkscape:transform-center-x="1.1296413e-06"
             inkscape:transform-center-y="-11.895892"
             transform="scale(0.26458333)"
             d="m 494.64132,764.0418 -155.74892,0 -155.74893,0 77.87446,-134.88252 77.87447,-134.88253 77.87446,134.88252 z" />
        </g>
        <g
           id="g1391">
          <path
             id="path832"
             style="fill:#ffffff;fill-rule:evenodd"
             inkscape:transform-center-x="2.1006309e-06"
             inkscape:transform-center-y="-9.4622168"
             transform="matrix(0.17725653,0,0,0.21045451,29.735572,38.397772)"
             d="m 494.64132,764.0418 -155.74892,0 -155.74893,0 77.87446,-134.88252 77.87447,-134.88253 77.87446,134.88252 z" />
          <g
             id="g1203"
             transform="matrix(0.98546955,-0.04099469,-0.16780854,-0.23498646,169.7262,110.58613)">
            <g
               id="g1201"
               transform="matrix(-3.3009729,-1.5658921,-0.38900401,0.93114374,417.54218,-52.981058)">
              <path
                 id="path1197"
                 style="fill:#999999;fill-rule:evenodd"
                 inkscape:transform-center-x="1.1296413e-06"
                 inkscape:transform-center-y="-11.895892"
                 transform="scale(0.26458333)"
                 d="m 494.64132,764.0418 -155.74892,0 -155.74893,0 77.87446,-134.88252 77.87447,-134.88253 77.87446,134.88252 z" />
              <path
                 id="path1199"
                 style="fill:#ffffff;fill-rule:evenodd"
                 inkscape:transform-center-y="-8.108343"
                 transform="matrix(0.18034229,0,0,0.18034229,28.626466,57.611652)"
                 d="m 494.64132,764.0418 -155.74892,0 -155.74893,0 77.87446,-134.88252 77.87447,-134.88253 77.87446,134.88252 z" />
            </g>
          </g>
          <g
             id="g1379"
             transform="matrix(-0.98546955,-0.04099469,0.16780854,-0.23498646,9.6043609,110.58613)">
            <g
               id="g1377"
               transform="matrix(-3.3009729,-1.5658921,-0.38900401,0.93114374,417.54218,-52.981058)">
              <path
                 id="path1373"
                 style="fill:#999999;fill-rule:evenodd"
                 inkscape:transform-center-x="1.1296413e-06"
                 inkscape:transform-center-y="-11.895892"
                 transform="scale(0.26458333)"
                 d="m 494.64132,764.0418 -155.74892,0 -155.74893,0 77.87446,-134.88252 77.87447,-134.88253 77.87446,134.88252 z" />
              <path
                 id="path1375"
                 style="fill:#ffffff;fill-rule:evenodd"
                 inkscape:transform-center-y="-8.108343"
                 transform="matrix(0.18034229,0,0,0.18034229,28.626466,57.611652)"
                 d="m 494.64132,764.0418 -155.74892,0 -155.74893,0 77.87446,-134.88252 77.87447,-134.88253 77.87446,134.88252 z" />
            </g>
          </g>
        </g>
      </g>
    </g>
  </g>
</svg>
