<?xml version="1.0" encoding="UTF-8" standalone="no"?>
<!-- Created with Inkscape (http://www.inkscape.org/) -->

<svg
   width="10mm"
   height="10mm"
   viewBox="0 0 10 10"
   version="1.1"
   id="svg5"
   inkscape:version="1.1.1 (3bf5ae0d25, 2021-09-20, custom)"
   sodipodi:docname="glyph_h.svg"
   xmlns:inkscape="http://www.inkscape.org/namespaces/inkscape"
   xmlns:sodipodi="http://sodipodi.sourceforge.net/DTD/sodipodi-0.dtd"
   xmlns="http://www.w3.org/2000/svg"
   xmlns:svg="http://www.w3.org/2000/svg">
  <sodipodi:namedview
     id="namedview7"
     pagecolor="#505050"
     bordercolor="#eeeeee"
     borderopacity="1"
     inkscape:pageshadow="0"
     inkscape:pageopacity="0"
     inkscape:pagecheckerboard="0"
     inkscape:document-units="mm"
     showgrid="false"
     width="1000000mm"
     inkscape:zoom="5.9091493"
     inkscape:cx="5.4999456"
     inkscape:cy="40.699598"
     inkscape:window-width="1366"
     inkscape:window-height="746"
     inkscape:window-x="0"
     inkscape:window-y="0"
     inkscape:window-maximized="1"
     inkscape:current-layer="g2455" />
  <defs
     id="defs2" />
  <g
     inkscape:label="Layer 1"
     inkscape:groupmode="layer"
     id="layer1">
    <g
       id="g2455"
       transform="translate(2.5255)">
      <g
         id="g2436"
         transform="translate(0.10004847)">
        <g
           id="g2338"
           transform="matrix(0,-0.00959839,0.02993564,0,-2.5642362,6.0996994)">
          <g
             id="g2336"
             transform="matrix(1,0,0,1.0397116,32.00769,-6.1526722)">
            <path
               id="path2332"
               style="fill:#999999;fill-rule:evenodd"
               inkscape:transform-center-x="1.1296413e-06"
               inkscape:transform-center-y="-11.895892"
               transform="scale(0.26458333)"
               d="m 494.64132,764.0418 -155.74892,0 -155.74893,0 77.87446,-134.88252 77.87447,-134.88253 77.87446,134.88252 z" />
            <path
               id="path2334"
               style="fill:#ffffff;fill-rule:evenodd"
               inkscape:transform-center-x="2.1006309e-06"
               inkscape:transform-center-y="-9.6936122"
               transform="matrix(0.17725656,0,0,0.21560109,29.735573,33.840395)"
               d="m 494.64132,764.0418 -155.74892,0 -155.74893,0 77.87446,-134.88252 77.87447,-134.88253 77.87446,134.88252 z" />
          </g>
        </g>
        <g
           id="g2346"
           transform="matrix(0,-0.00959839,-0.02993564,0,7.4296561,5.5747339)">
          <g
             id="g2344"
             transform="matrix(1,0,0,1.0397116,32.00769,-6.1526722)">
            <path
               id="path2340"
               style="fill:#999999;fill-rule:evenodd"
               inkscape:transform-center-x="1.1296413e-06"
               inkscape:transform-center-y="-11.895892"
               transform="scale(0.26458333)"
               d="m 494.64132,764.0418 -155.74892,0 -155.74893,0 77.87446,-134.88252 77.87447,-134.88253 77.87446,134.88252 z" />
            <path
               id="path2342"
               style="fill:#ffffff;fill-rule:evenodd"
               inkscape:transform-center-x="2.1006309e-06"
               inkscape:transform-center-y="-9.6936122"
               transform="matrix(0.17725656,0,0,0.21560109,29.735573,33.840395)"
               d="m 494.64132,764.0418 -155.74892,0 -155.74893,0 77.87446,-134.88252 77.87447,-134.88253 77.87446,134.88252 z" />
          </g>
        </g>
      </g>
      <g
         id="g2110"
         transform="matrix(0.01950289,0,0,-0.13475315,1.8747117,27.493398)">
        <g
           id="g2108"
           transform="matrix(1,0,0,1.0397116,32.00769,-6.1526722)">
          <path
             id="path2104"
             style="fill:#999999;fill-rule:evenodd"
             inkscape:transform-center-x="1.1296413e-06"
             inkscape:transform-center-y="-11.895892"
             transform="scale(0.26458333)"
             d="m 494.64132,764.0418 -155.74892,0 -155.74893,0 77.87446,-134.88252 77.87447,-134.88253 77.87446,134.88252 z" />
          <path
             id="path2106"
             style="fill:#ffffff;fill-rule:evenodd"
             inkscape:transform-center-x="2.1006309e-06"
             inkscape:transform-center-y="-9.6936122"
             transform="matrix(0.17725656,0,0,0.21560109,29.735573,33.840395)"
             d="m 494.64132,764.0418 -155.74892,0 -155.74893,0 77.87446,-134.88252 77.87447,-134.88253 77.87446,134.88252 z" />
        </g>
      </g>
      <g
         id="g2322"
         transform="matrix(-0.01950289,0,0,-0.13475315,3.1766607,27.493398)">
        <g
           id="g2320"
           transform="matrix(1,0,0,1.0397116,32.00769,-6.1526722)">
          <path
             id="path2316"
             style="fill:#999999;fill-rule:evenodd"
             inkscape:transform-center-x="1.1296413e-06"
             inkscape:transform-center-y="-11.895892"
             transform="scale(0.26458333)"
             d="m 494.64132,764.0418 -155.74892,0 -155.74893,0 77.87446,-134.88252 77.87447,-134.88253 77.87446,134.88252 z" />
          <path
             id="path2318"
             style="fill:#ffffff;fill-rule:evenodd"
             inkscape:transform-center-x="2.1006309e-06"
             inkscape:transform-center-y="-9.6936122"
             transform="matrix(0.17725656,0,0,0.21560109,29.735573,33.840395)"
             d="m 494.64132,764.0418 -155.74892,0 -155.74893,0 77.87446,-134.88252 77.87447,-134.88253 77.87446,134.88252 z" />
        </g>
      </g>
    </g>
  </g>
</svg>
