<?xml version="1.0" encoding="UTF-8" standalone="no"?>
<!-- Created with Inkscape (http://www.inkscape.org/) -->

<svg
   width="10mm"
   height="10mm"
   viewBox="0 0 10 10"
   version="1.1"
   id="svg5"
   inkscape:version="1.1.1 (3bf5ae0d25, 2021-09-20, custom)"
   sodipodi:docname="glyph_l.svg"
   xmlns:inkscape="http://www.inkscape.org/namespaces/inkscape"
   xmlns:sodipodi="http://sodipodi.sourceforge.net/DTD/sodipodi-0.dtd"
   xmlns="http://www.w3.org/2000/svg"
   xmlns:svg="http://www.w3.org/2000/svg">
  <sodipodi:namedview
     id="namedview7"
     pagecolor="#505050"
     bordercolor="#eeeeee"
     borderopacity="1"
     inkscape:pageshadow="0"
     inkscape:pageopacity="0"
     inkscape:pagecheckerboard="0"
     inkscape:document-units="mm"
     showgrid="false"
     width="1000000mm"
     inkscape:zoom="10.629891"
     inkscape:cx="16.886344"
     inkscape:cy="21.11969"
     inkscape:window-width="1366"
     inkscape:window-height="768"
     inkscape:window-x="13"
     inkscape:window-y="111"
     inkscape:window-maximized="0"
     inkscape:current-layer="g849" />
  <defs
     id="defs2" />
  <g
     inkscape:label="Layer 1"
     inkscape:groupmode="layer"
     id="layer1">
    <g
       id="g836">
      <g
         id="g849"
         transform="matrix(1.000072,0,0,0.99992875,-2.9657906,2.290219)">
        <g
           id="g834"
           transform="matrix(-0.0250062,0,0,-0.08619838,8.6603555,19.512296)">
          <g
             id="g840"
             transform="matrix(0.78468141,0,0,1,7.0181534,6.1389398)">
            <path
               id="path830"
               style="fill:#999999;fill-rule:evenodd"
               inkscape:transform-center-x="1.1296413e-06"
               inkscape:transform-center-y="-11.895892"
               transform="scale(0.26458333)"
               d="m 494.64132,764.0418 -155.74892,0 -155.74893,0 77.87446,-134.88252 77.87447,-134.88253 77.87446,134.88252 z" />
            <path
               id="path832"
               style="fill:#ffffff;fill-rule:evenodd"
               inkscape:transform-center-x="2.1006309e-06"
               inkscape:transform-center-y="-7.9696088"
               transform="matrix(0.17725656,0,0,0.17725656,29.735573,59.027426)"
               d="m 494.64132,764.0418 -155.74892,0 -155.74893,0 77.87446,-134.88252 77.87447,-134.88253 77.87446,134.88252 z" />
          </g>
        </g>
        <g
           id="g828"
           transform="matrix(0,0.01675174,-0.04613617,0,16.649094,5.4516835)">
          <path
             id="path824"
             style="fill:#999999;fill-rule:evenodd"
             inkscape:transform-center-x="1.1296413e-06"
             inkscape:transform-center-y="-11.895892"
             transform="scale(0.26458333)"
             d="m 494.64132,764.0418 -155.74892,0 -155.74893,0 77.87446,-134.88252 77.87447,-134.88253 77.87446,134.88252 z" />
          <path
             id="path826"
             style="fill:#ffffff;fill-rule:evenodd"
             inkscape:transform-center-x="2.1006309e-06"
             inkscape:transform-center-y="-7.9696088"
             transform="matrix(0.17725656,0,0,0.17725656,29.735573,59.027426)"
             d="m 494.64132,764.0418 -155.74892,0 -155.74893,0 77.87446,-134.88252 77.87447,-134.88253 77.87446,134.88252 z" />
        </g>
      </g>
    </g>
  </g>
</svg>
