<?xml version="1.0" encoding="UTF-8" standalone="no"?>
<!-- Created with Inkscape (http://www.inkscape.org/) -->

<svg
   width="10mm"
   height="10mm"
   viewBox="0 0 10 10"
   version="1.1"
   id="svg5"
   inkscape:version="1.1.1 (3bf5ae0d25, 2021-09-20, custom)"
   sodipodi:docname="glyph_m.svg"
   xmlns:inkscape="http://www.inkscape.org/namespaces/inkscape"
   xmlns:sodipodi="http://sodipodi.sourceforge.net/DTD/sodipodi-0.dtd"
   xmlns="http://www.w3.org/2000/svg"
   xmlns:svg="http://www.w3.org/2000/svg">
  <sodipodi:namedview
     id="namedview7"
     pagecolor="#505050"
     bordercolor="#eeeeee"
     borderopacity="1"
     inkscape:pageshadow="0"
     inkscape:pageopacity="0"
     inkscape:pagecheckerboard="0"
     inkscape:document-units="mm"
     showgrid="false"
     width="1000000mm"
     inkscape:zoom="9.3797944"
     inkscape:cx="11.993866"
     inkscape:cy="24.147651"
     inkscape:window-width="1366"
     inkscape:window-height="746"
     inkscape:window-x="0"
     inkscape:window-y="0"
     inkscape:window-maximized="1"
     inkscape:current-layer="g1354" />
  <defs
     id="defs2" />
  <g
     inkscape:label="Layer 1"
     inkscape:groupmode="layer"
     id="layer1">
    <g
       id="g1354"
       transform="matrix(1,0,0,-0.99996936,0.89166773,10)">
      <g
         id="g1263"
         transform="matrix(1,0,0,-1,4.2333335,5.3620941)">
        <g
           id="g1253"
           transform="matrix(-0.04630744,0,0,0.07512531,6.0604318,-9.8246919)">
          <g
             id="g1251"
             transform="matrix(1,0,0,0.81463205,0,37.472635)">
            <path
               id="path1247"
               style="fill:#999999;fill-rule:evenodd"
               inkscape:transform-center-x="1.1296413e-06"
               inkscape:transform-center-y="-11.895892"
               transform="scale(0.26458333)"
               d="m 494.64132,764.0418 -155.74892,0 -155.74893,0 77.87446,-134.88252 77.87447,-134.88253 77.87446,134.88252 z" />
            <path
               id="path1249"
               style="fill:#ffffff;fill-rule:evenodd"
               inkscape:transform-center-x="2.1006309e-06"
               inkscape:transform-center-y="-7.9696088"
               transform="matrix(0.17725656,0,0,0.17725656,29.735573,59.027426)"
               d="m 494.64132,764.0418 -155.74892,0 -155.74893,0 77.87446,-134.88252 77.87447,-134.88253 77.87446,134.88252 z" />
          </g>
        </g>
        <g
           id="g1261"
           transform="matrix(-0.04630744,0,0,0.07512531,6.0604318,-9.8246919)">
          <g
             id="g1259"
             transform="matrix(1,0,0,0.81463205,0,37.472635)">
            <path
               id="path1255"
               style="fill:#999999;fill-rule:evenodd"
               inkscape:transform-center-x="1.1296413e-06"
               inkscape:transform-center-y="-11.895892"
               transform="scale(0.26458333)"
               d="m 494.64132,764.0418 -155.74892,0 -155.74893,0 77.87446,-134.88252 77.87447,-134.88253 77.87446,134.88252 z" />
            <path
               id="path1257"
               style="fill:#ffffff;fill-rule:evenodd"
               inkscape:transform-center-x="2.1006309e-06"
               inkscape:transform-center-y="-7.9696088"
               transform="matrix(0.17725656,0,0,0.17725656,29.735573,59.027426)"
               d="m 494.64132,764.0418 -155.74892,0 -155.74893,0 77.87446,-134.88252 77.87447,-134.88253 77.87446,134.88252 z" />
          </g>
        </g>
      </g>
      <g
         id="g1121"
         transform="matrix(1,0,0,-1,0,5.3620941)">
        <g
           id="g834"
           transform="matrix(-0.04630744,0,0,0.07512531,6.0604318,-9.8246919)">
          <g
             id="g1157"
             transform="matrix(1,0,0,0.81463205,0,37.472635)">
            <path
               id="path830"
               style="fill:#999999;fill-rule:evenodd"
               inkscape:transform-center-x="1.1296413e-06"
               inkscape:transform-center-y="-11.895892"
               transform="scale(0.26458333)"
               d="m 494.64132,764.0418 -155.74892,0 -155.74893,0 77.87446,-134.88252 77.87447,-134.88253 77.87446,134.88252 z" />
            <path
               id="path832"
               style="fill:#ffffff;fill-rule:evenodd"
               inkscape:transform-center-x="2.1006309e-06"
               inkscape:transform-center-y="-7.9696088"
               transform="matrix(0.17725656,0,0,0.17725656,29.735573,59.027426)"
               d="m 494.64132,764.0418 -155.74892,0 -155.74893,0 77.87446,-134.88252 77.87447,-134.88253 77.87446,134.88252 z" />
          </g>
        </g>
        <g
           id="g1245"
           transform="matrix(-0.04630744,0,0,0.07512531,6.0604318,-9.8246919)">
          <g
             id="g1243"
             transform="matrix(1,0,0,0.81463205,0,37.472635)">
            <path
               id="path1239"
               style="fill:#999999;fill-rule:evenodd"
               inkscape:transform-center-x="1.1296413e-06"
               inkscape:transform-center-y="-11.895892"
               transform="scale(0.26458333)"
               d="m 494.64132,764.0418 -155.74892,0 -155.74893,0 77.87446,-134.88252 77.87447,-134.88253 77.87446,134.88252 z" />
            <path
               id="path1241"
               style="fill:#ffffff;fill-rule:evenodd"
               inkscape:transform-center-x="2.1006309e-06"
               inkscape:transform-center-y="-7.9696088"
               transform="matrix(0.17725656,0,0,0.17725656,29.735573,59.027426)"
               d="m 494.64132,764.0418 -155.74892,0 -155.74893,0 77.87446,-134.88252 77.87447,-134.88253 77.87446,134.88252 z" />
          </g>
        </g>
      </g>
      <g
         id="g1019"
         transform="matrix(-0.0314983,0,0,0.05166547,6.8493045,-6.2275085)">
        <path
           id="path1015"
           style="fill:#999999;fill-rule:evenodd"
           inkscape:transform-center-x="1.1296413e-06"
           inkscape:transform-center-y="-11.895892"
           transform="scale(0.26458333)"
           d="m 494.64132,764.0418 -155.74892,0 -155.74893,0 77.87446,-134.88252 77.87447,-134.88253 77.87446,134.88252 z" />
        <path
           id="path1017"
           style="fill:#ffffff;fill-rule:evenodd"
           inkscape:transform-center-x="2.1006309e-06"
           inkscape:transform-center-y="-7.9696088"
           transform="matrix(0.17725656,0,0,0.17725656,29.735573,59.027426)"
           d="m 494.64132,764.0418 -155.74892,0 -155.74893,0 77.87446,-134.88252 77.87447,-134.88253 77.87446,134.88252 z" />
      </g>
    </g>
  </g>
</svg>
