<?xml version="1.0" encoding="UTF-8" standalone="no"?>
<!-- Created with Inkscape (http://www.inkscape.org/) -->

<svg
   width="10mm"
   height="10mm"
   viewBox="0 0 10 10"
   version="1.1"
   id="svg5"
   inkscape:version="1.1.1 (3bf5ae0d25, 2021-09-20, custom)"
   sodipodi:docname="glyph_n.svg"
   xmlns:inkscape="http://www.inkscape.org/namespaces/inkscape"
   xmlns:sodipodi="http://sodipodi.sourceforge.net/DTD/sodipodi-0.dtd"
   xmlns="http://www.w3.org/2000/svg"
   xmlns:svg="http://www.w3.org/2000/svg">
  <sodipodi:namedview
     id="namedview7"
     pagecolor="#505050"
     bordercolor="#eeeeee"
     borderopacity="1"
     inkscape:pageshadow="0"
     inkscape:pageopacity="0"
     inkscape:pagecheckerboard="0"
     inkscape:document-units="mm"
     showgrid="false"
     width="1000000mm"
     inkscape:zoom="7.8721978"
     inkscape:cx="7.939333"
     inkscape:cy="16.704357"
     inkscape:window-width="1366"
     inkscape:window-height="746"
     inkscape:window-x="0"
     inkscape:window-y="0"
     inkscape:window-maximized="1"
     inkscape:current-layer="layer1" />
  <defs
     id="defs2" />
  <g
     inkscape:label="Layer 1"
     inkscape:groupmode="layer"
     id="layer1">
    <g
       id="g3968"
       transform="matrix(1,0,0,1.0000509,0.1796063,0.77195203)">
      <g
         id="g834"
         transform="matrix(-0.02346301,0,0,0.09593126,5.2290881,-10.291706)">
        <path
           id="path830"
           style="fill:#999999;fill-rule:evenodd"
           inkscape:transform-center-x="1.1296413e-06"
           inkscape:transform-center-y="-11.895892"
           transform="scale(0.26458333)"
           d="M 494.64132,764.0418 H 338.8924 183.14347 l 77.87446,-134.88252 77.87447,-134.88253 77.87446,134.88252 z" />
        <path
           id="path832"
           style="fill:#ffffff;fill-rule:evenodd"
           inkscape:transform-center-x="2.1006309e-06"
           inkscape:transform-center-y="-7.9696088"
           transform="matrix(0.17725656,0,0,0.17725656,29.735573,59.027426)"
           d="M 494.64132,764.0418 H 338.8924 183.14347 l 77.87446,-134.88252 77.87447,-134.88253 77.87446,134.88252 z" />
      </g>
      <g
         id="g835"
         transform="matrix(-0.02346301,0,0,-0.09593126,7.9709398,21.646766)">
        <path
           id="path831"
           style="fill:#999999;fill-rule:evenodd"
           inkscape:transform-center-x="1.1296413e-06"
           inkscape:transform-center-y="-11.895892"
           transform="scale(0.26458333)"
           d="M 494.64132,764.0418 H 338.8924 183.14347 l 77.87446,-134.88252 77.87447,-134.88253 77.87446,134.88252 z" />
        <path
           id="path833"
           style="fill:#ffffff;fill-rule:evenodd"
           inkscape:transform-center-x="2.1006309e-06"
           inkscape:transform-center-y="-7.9696088"
           transform="matrix(0.17725656,0,0,0.17725656,29.735573,59.027426)"
           d="M 494.64132,764.0418 H 338.8924 183.14347 l 77.87446,-134.88252 77.87447,-134.88253 77.87446,134.88252 z" />
      </g>
      <g
         id="g1116"
         transform="matrix(-0.01295319,0.00563624,0.02246774,0.09560416,1.6959873,-10.799114)">
        <path
           id="path1112"
           style="fill:#999999;fill-rule:evenodd;stroke-width:0.249028"
           inkscape:transform-center-x="1.1296413e-06"
           inkscape:transform-center-y="-11.895892"
           d="m 115.79189,202.64873 -36.370634,-0.63155 -36.370637,-0.63155 27.83672,-35.33679 27.836723,-35.3368 8.533918,35.96834 z" />
        <path
           id="path1114"
           style="fill:#ffffff;fill-rule:evenodd;stroke-width:0.163447"
           inkscape:transform-center-x="2.0888475e-06"
           inkscape:transform-center-y="-7.8579709"
           d="m 104.6068,198.72379 -23.742308,-0.43088 -23.742308,-0.43089 17.82179,-23.31467 17.821791,-23.31468 5.920516,23.74557 z" />
      </g>
    </g>
  </g>
</svg>
